<svg width="138" height="25" viewBox="0 0 138 25" fill="none" xmlns="http://www.w3.org/2000/svg">
<path d="M6.58553 0.913354L0.356239 5.79756C-0.0510605 6.11709 -0.122937 6.68767 0.212486 7.07567L14.1086 23.3488C14.444 23.7367 15.043 23.8052 15.4503 23.4857L21.6796 18.6015C22.0869 18.282 22.1588 17.7114 21.8233 17.3234L7.92722 1.05029C7.5918 0.662297 6.99283 0.593827 6.58553 0.913354Z" fill="white"/>
<path d="M14.9954 6.68725C15.235 6.96113 15.6902 6.96113 15.9298 6.68725L20.8174 0.958582C21.1528 0.570585 20.8653 0 20.3621 0H10.563C10.0599 0 9.77235 0.570585 10.0838 0.958582L14.9954 6.68725Z" fill="white"/>
<path d="M6.82497 17.7347C6.58538 17.4608 6.13017 17.4608 5.89058 17.7347L0.979023 23.4634C0.6436 23.8514 0.931105 24.422 1.4582 24.422H11.2574C11.7605 24.422 12.048 23.8514 11.7365 23.4634L6.82497 17.7347Z" fill="white"/>
<path d="M34.4015 15.2914C35.0484 15.3371 35.5515 15.2458 35.9348 15.0403C36.3421 14.8349 36.5338 14.5611 36.5338 14.1959C36.5338 13.8764 36.414 13.6253 36.1505 13.4199C35.8869 13.2145 35.5754 13.0775 35.1442 13.0091C34.7369 12.9406 34.2817 12.8721 33.8025 12.8037C33.3233 12.7352 32.8202 12.6439 32.341 12.5298C31.8618 12.4157 31.4066 12.2331 30.9993 12.0277C30.592 11.7994 30.2566 11.4571 30.017 11.0006C29.7535 10.5441 29.6337 9.95073 29.6337 9.26603C29.6337 8.19333 30.0649 7.34887 30.9274 6.73263C31.79 6.1164 32.94 5.79688 34.3775 5.79688C36.1505 5.79688 37.7317 6.23052 39.0734 7.12063L37.8036 9.19756C36.9411 8.55851 35.7911 8.23898 34.3535 8.23898C33.1556 8.23898 32.5327 8.58133 32.5327 9.24321C32.5327 9.56273 32.6525 9.81379 32.916 9.99638C33.1796 10.1561 33.491 10.2931 33.8983 10.3616C34.3056 10.43 34.7609 10.4985 35.24 10.5441C35.7432 10.5898 36.2223 10.6811 36.7255 10.818C37.2286 10.955 37.6599 11.1147 38.0672 11.343C38.4745 11.5712 38.8099 11.9135 39.0734 12.3928C39.337 12.8721 39.4568 13.4427 39.4568 14.1502C39.4568 15.2686 38.9776 16.1359 37.9953 16.7521C37.013 17.3683 35.815 17.6879 34.3535 17.6879C32.4368 17.6879 30.7837 17.2542 29.3701 16.3641L30.7837 14.1731C31.7181 14.8578 32.916 15.2001 34.4015 15.2914Z" fill="white"/>
<path d="M49.8555 11.7316C49.8555 10.7958 49.5201 9.97417 48.8732 9.31229C48.2263 8.62759 47.4117 8.30806 46.4773 8.30806C45.5429 8.30806 44.7283 8.65041 44.0815 9.33511C43.4106 10.0198 43.0991 10.8186 43.0991 11.7544C43.0991 12.713 43.4346 13.5346 44.0815 14.2193C44.7523 14.904 45.5429 15.2235 46.4773 15.2235C47.4357 15.2235 48.2263 14.8812 48.8732 14.2193C49.5201 13.5118 49.8555 12.6902 49.8555 11.7316ZM52.6827 11.7316C52.6827 13.3977 52.0597 14.8127 50.8378 15.9539C49.6159 17.0951 48.1545 17.6657 46.4773 17.6657C44.8002 17.6657 43.3387 17.0951 42.1168 15.9539C40.871 14.8127 40.248 13.3977 40.248 11.7316C40.248 10.0655 40.871 8.67324 42.0929 7.53207C43.3387 6.3909 44.8002 5.82031 46.4534 5.82031C48.1305 5.82031 49.592 6.3909 50.8139 7.53207C52.0597 8.67324 52.6827 10.0655 52.6827 11.7316Z" fill="white"/>
<path d="M57.7137 14.1953C58.4324 14.88 59.271 15.2223 60.2533 15.2223C61.2596 15.2223 62.0981 14.88 62.8169 14.1953L64.7815 16.0668C63.4877 17.1623 61.9783 17.7101 60.2533 17.7101C58.4803 17.7101 56.923 17.1395 55.6053 15.9755C54.2875 14.8115 53.6167 13.4193 53.6167 11.7303C53.6167 10.0642 54.2636 8.64918 55.5813 7.50801C56.8991 6.36685 58.4564 5.77344 60.2293 5.77344C61.9544 5.77344 63.4877 6.3212 64.7575 7.41672L62.7929 9.28824C62.0742 8.60354 61.2116 8.26119 60.2293 8.26119C59.247 8.26119 58.3845 8.60354 57.6897 9.28824C56.9949 9.97294 56.6355 10.7718 56.6355 11.7303C56.6595 12.6889 57.0188 13.5106 57.7137 14.1953Z" fill="white"/>
<path d="M66.5785 6.02484H69.4775V17.2539H66.5785V6.02484ZM66.7941 4.70108C66.4587 4.38156 66.291 3.99356 66.291 3.55991C66.291 3.12627 66.4587 2.73827 66.7941 2.41874C67.1296 2.09922 67.5369 1.93945 68.016 1.93945C68.4952 1.93945 68.9025 2.09922 69.2379 2.41874C69.5734 2.73827 69.7411 3.12627 69.7411 3.55991C69.7411 3.99356 69.5734 4.38156 69.2379 4.70108C68.9025 5.02061 68.4952 5.18037 68.016 5.18037C67.5369 5.18037 67.1296 5.02061 66.7941 4.70108Z" fill="white"/>
<path d="M114.784 6.04883H117.683V17.2779H114.784V15.5434L116.485 15.1554C116.173 15.7488 115.167 16.4106 114.328 16.8671C113.49 17.3236 112.412 17.4377 111.333 17.4377C110.255 17.4377 109.033 16.8899 108.099 16.0683C107.26 15.1782 106.733 14.2196 106.733 12.8274V6.04883H109.632V12.6448C109.632 13.3295 109.872 13.9229 110.375 14.4022C110.878 14.8815 111.477 15.1325 112.196 15.1325C112.915 15.1325 113.538 14.8815 114.017 14.4022C114.52 13.9229 114.784 13.3295 114.784 12.6448V6.04883Z" fill="white"/>
<path d="M129.351 11.5489C129.351 10.5904 128.991 9.79155 128.296 9.10684C127.602 8.42214 126.763 8.10262 125.757 8.10262C124.75 8.10262 123.912 8.44497 123.193 9.12967C122.498 9.81437 122.139 10.6132 122.139 11.5489C122.139 12.5075 122.498 13.3292 123.193 14.0139C123.912 14.6986 124.75 15.0181 125.757 15.0181C126.763 15.0181 127.625 14.6758 128.32 14.0139C128.991 13.3292 129.351 12.5075 129.351 11.5489ZM129.351 17.1635V15.3605L130.165 15.155C129.782 15.7485 129.59 16.1821 128.488 16.7527C127.386 17.3233 126.308 17.483 125.397 17.483C123.672 17.483 122.187 16.9124 120.965 15.7713C119.743 14.6301 119.144 13.2151 119.144 11.5261C119.144 9.83719 119.743 8.44497 120.965 7.3038C122.187 6.16263 123.672 5.59204 125.397 5.59204C127.003 5.59204 129.039 6.20827 130.045 7.50921L129.351 7.55485V2.625H132.25V17.1863H129.351V17.1635Z" fill="white"/>
<path d="M86.6562 17.1635V2.625H89.5553V17.1863H86.6562V17.1635Z" fill="white"/>
<path d="M81.3129 11.5253C81.3129 10.5667 80.9535 9.76786 80.2587 9.08316C79.5639 8.39846 78.7253 8.07893 77.7191 8.07893C76.7368 8.07893 75.8743 8.42128 75.1555 9.10598C74.4607 9.79069 74.1013 10.5895 74.1013 11.5253C74.1013 12.4838 74.4607 13.3055 75.1555 13.9902C75.8743 14.6749 76.7128 14.9944 77.7191 14.9944C78.7253 14.9944 79.5879 14.6521 80.2827 13.9902C80.9775 13.3055 81.3129 12.4838 81.3129 11.5253ZM81.3129 17.1398V15.3368L82.1275 15.1314C81.7442 15.7248 81.5525 16.1584 80.4504 16.729C79.3483 17.2996 78.2701 17.4593 77.3597 17.4593C75.6347 17.4593 74.1492 16.8888 72.9273 15.7476C71.7054 14.6064 71.1064 13.1914 71.1064 11.5024C71.1064 9.81351 71.7054 8.42128 72.9273 7.28011C74.1492 6.13894 75.6347 5.56836 77.3597 5.56836C78.9649 5.56836 81.0014 6.18459 82.0077 7.48552L81.3129 7.53117V6.002H84.2119V17.1398H81.3129Z" fill="white"/>
<path d="M95.3048 11.5489C95.3048 10.5904 95.6642 9.79155 96.359 9.10684C97.0538 8.42214 97.8923 8.10262 98.8986 8.10262C99.8809 8.10262 100.743 8.44497 101.462 9.12967C102.157 9.81437 102.516 10.6132 102.516 11.5489C102.516 12.5075 102.157 13.3292 101.462 14.0139C100.743 14.6986 99.9049 15.0181 98.8986 15.0181C97.8923 15.0181 97.0298 14.6758 96.335 14.0139C95.6642 13.3292 95.3048 12.5075 95.3048 11.5489ZM95.3048 17.1635V15.3605L94.4902 15.155C94.8735 15.7485 95.0652 16.1821 96.1673 16.7527C97.2694 17.3233 98.3475 17.483 99.258 17.483C100.983 17.483 102.468 16.9124 103.69 15.7713C104.912 14.6301 105.511 13.2151 105.511 11.5261C105.511 9.83719 104.912 8.44497 103.69 7.3038C102.468 6.16263 100.983 5.59204 99.258 5.59204C97.6527 5.59204 95.6162 6.20827 94.61 7.50921L95.3048 7.55485V2.625H92.4058V17.1863H95.3048V17.1635Z" fill="white"/>
</svg>
