<svg width="164" height="31" viewBox="0 0 164 31" fill="none" xmlns="http://www.w3.org/2000/svg">
<path d="M7.82628 1.15929L0.423357 7.35928C-0.0606805 7.76489 -0.146099 8.48919 0.25252 8.98171L16.7667 29.6387C17.1654 30.1312 17.8772 30.2181 18.3612 29.8125L25.7641 23.6125C26.2482 23.2069 26.3336 22.4826 25.935 21.9901L9.42076 1.33312C9.02214 0.8406 8.31032 0.753684 7.82628 1.15929Z" fill="#FDC05E"/>
<path d="M17.8186 8.48878C18.1033 8.83644 18.6443 8.83644 18.9291 8.48878L24.7375 1.21682C25.1361 0.724298 24.7945 0 24.1965 0H12.5512C11.9532 0 11.6115 0.724298 11.9817 1.21682L17.8186 8.48878Z" fill="#FD745D"/>
<path d="M8.11075 22.5107C7.82602 22.1631 7.28504 22.1631 7.00031 22.5107L1.16339 29.7827C0.764773 30.2752 1.10645 30.9995 1.73285 30.9995H13.3782C13.9761 30.9995 14.3178 30.2752 13.9477 29.7827L8.11075 22.5107Z" fill="#7B4EA6"/>
<path d="M40.8816 19.4117C41.6504 19.4696 42.2483 19.3538 42.7039 19.093C43.1879 18.8323 43.4157 18.4846 43.4157 18.021C43.4157 17.6154 43.2733 17.2967 42.9601 17.036C42.6469 16.7753 42.2768 16.6014 41.7643 16.5145C41.2802 16.4276 40.7393 16.3407 40.1698 16.2538C39.6004 16.1668 39.0024 16.051 38.433 15.9061C37.8635 15.7612 37.3225 15.5295 36.8385 15.2687C36.3545 14.979 35.9558 14.5444 35.6711 13.965C35.3579 13.3855 35.2155 12.6323 35.2155 11.7631C35.2155 10.4014 35.7281 9.32947 36.7531 8.54722C37.7781 7.76498 39.1448 7.35938 40.8532 7.35938C42.9601 7.35938 44.8393 7.90984 46.4338 9.03975L44.9248 11.6762C43.8997 10.865 42.533 10.4594 40.8247 10.4594C39.401 10.4594 38.6608 10.894 38.6608 11.7341C38.6608 12.1397 38.8031 12.4584 39.1163 12.6902C39.4295 12.893 39.7997 13.0668 40.2837 13.1538C40.7677 13.2407 41.3087 13.3276 41.8782 13.3855C42.4761 13.4435 43.0456 13.5594 43.6435 13.7332C44.2414 13.907 44.7539 14.1098 45.238 14.3996C45.722 14.6893 46.1206 15.1239 46.4338 15.7323C46.747 16.3407 46.8894 17.065 46.8894 17.9631C46.8894 19.3827 46.3199 20.4837 45.1525 21.2659C43.9852 22.0481 42.5615 22.4538 40.8247 22.4538C38.5469 22.4538 36.5822 21.9033 34.9023 20.7734L36.5822 17.9921C37.6927 18.8612 39.1163 19.2958 40.8816 19.4117Z" fill="#40324C"/>
<path d="M59.2496 14.8924C59.2496 13.7046 58.851 12.6616 58.0822 11.8214C57.3135 10.9522 56.3454 10.5466 55.235 10.5466C54.1245 10.5466 53.1564 10.9812 52.3877 11.8504C51.5904 12.7195 51.2203 13.7335 51.2203 14.9214C51.2203 16.1382 51.6189 17.1812 52.3877 18.0503C53.1849 18.9195 54.1245 19.3251 55.235 19.3251C56.3739 19.3251 57.3135 18.8905 58.0822 18.0503C58.851 17.1522 59.2496 16.1092 59.2496 14.8924ZM62.6094 14.8924C62.6094 17.0074 61.8691 18.8036 60.417 20.2522C58.9649 21.7008 57.2281 22.4251 55.235 22.4251C53.2419 22.4251 51.505 21.7008 50.0529 20.2522C48.5723 18.8036 47.832 17.0074 47.832 14.8924C47.832 12.7775 48.5723 11.0102 50.0244 9.56157C51.505 8.11297 53.2419 7.38867 55.2065 7.38867C57.1996 7.38867 58.9364 8.11297 60.3885 9.56157C61.8691 11.0102 62.6094 12.7775 62.6094 14.8924Z" fill="#40324C"/>
<path d="M68.5876 18.0207C69.4418 18.8899 70.4383 19.3245 71.6057 19.3245C72.8016 19.3245 73.7981 18.8899 74.6523 18.0207L76.9871 20.3964C75.4495 21.7871 73.6558 22.4824 71.6057 22.4824C69.4987 22.4824 67.648 21.7581 66.082 20.2805C64.516 18.803 63.7188 17.0357 63.7188 14.8918C63.7188 12.7768 64.4875 10.9805 66.0535 9.53194C67.6195 8.08335 69.4702 7.33008 71.5772 7.33008C73.6273 7.33008 75.4495 8.0254 76.9586 9.41606L74.6238 11.7918C73.7696 10.9226 72.7446 10.488 71.5772 10.488C70.4099 10.488 69.3848 10.9226 68.5591 11.7918C67.7334 12.6609 67.3063 13.6749 67.3063 14.8918C67.3348 16.1086 67.7619 17.1516 68.5876 18.0207Z" fill="#40324C"/>
<path d="M79.1229 7.64887H82.5681V21.9031H79.1229V7.64887ZM79.3792 5.96849C78.9806 5.56289 78.7812 5.07036 78.7812 4.5199C78.7812 3.96943 78.9806 3.47691 79.3792 3.0713C79.7778 2.66569 80.2618 2.46289 80.8313 2.46289C81.4007 2.46289 81.8848 2.66569 82.2834 3.0713C82.682 3.47691 82.8813 3.96943 82.8813 4.5199C82.8813 5.07036 82.682 5.56289 82.2834 5.96849C81.8848 6.3741 81.4007 6.57691 80.8313 6.57691C80.2618 6.57691 79.7778 6.3741 79.3792 5.96849Z" fill="#40324C"/>
<path d="M136.411 7.67773H139.856V21.9319H136.411V19.7301L138.432 19.2375C138.062 19.9908 136.866 20.831 135.87 21.4104C134.873 21.9899 133.592 22.1347 132.311 22.1347C131.029 22.1347 129.577 21.4394 128.467 20.3964C127.47 19.2665 126.844 18.0497 126.844 16.2824V7.67773H130.289V16.0506C130.289 16.9198 130.574 17.6731 131.172 18.2815C131.77 18.8899 132.481 19.2086 133.336 19.2086C134.19 19.2086 134.93 18.8899 135.499 18.2815C136.097 17.6731 136.411 16.9198 136.411 16.0506V7.67773Z" fill="#40324C"/>
<path d="M153.719 14.6601C153.719 13.4432 153.292 12.4292 152.466 11.5601C151.641 10.6909 150.644 10.2853 149.448 10.2853C148.252 10.2853 147.256 10.7199 146.402 11.589C145.576 12.4582 145.149 13.4722 145.149 14.6601C145.149 15.8769 145.576 16.9199 146.402 17.789C147.256 18.6582 148.252 19.0638 149.448 19.0638C150.644 19.0638 151.669 18.6292 152.495 17.789C153.292 16.9199 153.719 15.8769 153.719 14.6601ZM153.719 21.7872V19.4984L154.687 19.2376C154.232 19.9909 154.004 20.5414 152.694 21.2657C151.384 21.99 150.103 22.1928 149.021 22.1928C146.971 22.1928 145.206 21.4685 143.754 20.0199C142.302 18.5713 141.59 16.775 141.59 14.6311C141.59 12.4872 142.302 10.7199 143.754 9.27128C145.206 7.82268 146.971 7.09838 149.021 7.09838C150.929 7.09838 153.349 7.88062 154.545 9.53203L153.719 9.58997V3.33203H157.164V21.8161H153.719V21.7872Z" fill="#40324C"/>
<path d="M102.984 21.7872V3.33203H106.43V21.8161H102.984V21.7872Z" fill="#40324C"/>
<path d="M96.6333 14.63C96.6333 13.4132 96.2062 12.3992 95.3805 11.53C94.5548 10.6609 93.5583 10.2553 92.3624 10.2553C91.195 10.2553 90.17 10.6899 89.3158 11.559C88.4901 12.4282 88.063 13.4422 88.063 14.63C88.063 15.8469 88.4901 16.8898 89.3158 17.759C90.17 18.6282 91.1665 19.0338 92.3624 19.0338C93.5583 19.0338 94.5833 18.5992 95.409 17.759C96.2347 16.8898 96.6333 15.8469 96.6333 14.63ZM96.6333 21.7571V19.4683L97.6014 19.2076C97.1458 19.9609 96.918 20.5113 95.6083 21.2356C94.2985 21.9599 93.0173 22.1627 91.9353 22.1627C89.8853 22.1627 88.12 21.4384 86.6678 19.9898C85.2157 18.5412 84.5039 16.745 84.5039 14.6011C84.5039 12.4571 85.2157 10.6899 86.6678 9.24125C88.12 7.79266 89.8853 7.06836 91.9353 7.06836C93.843 7.06836 96.2632 7.8506 97.459 9.502L96.6333 9.55995V7.61883H100.079V21.7571H96.6333Z" fill="#40324C"/>
<path d="M113.262 14.6601C113.262 13.4432 113.689 12.4292 114.514 11.5601C115.34 10.6909 116.337 10.2853 117.533 10.2853C118.7 10.2853 119.725 10.7199 120.579 11.589C121.405 12.4582 121.832 13.4722 121.832 14.6601C121.832 15.8769 121.405 16.9199 120.579 17.789C119.725 18.6582 118.728 19.0638 117.533 19.0638C116.337 19.0638 115.312 18.6292 114.486 17.789C113.689 16.9199 113.262 15.8769 113.262 14.6601ZM113.262 21.7872V19.4984L112.294 19.2376C112.749 19.9909 112.977 20.5414 114.287 21.2657C115.596 21.99 116.878 22.1928 117.96 22.1928C120.01 22.1928 121.775 21.4685 123.227 20.0199C124.679 18.5713 125.391 16.775 125.391 14.6311C125.391 12.4872 124.679 10.7199 123.227 9.27128C121.775 7.82268 120.01 7.09838 117.96 7.09838C116.052 7.09838 113.632 7.88062 112.436 9.53203L113.262 9.58997V3.33203H109.816V21.8161H113.262V21.7872Z" fill="#40324C"/>
</svg>
